/* XPM */
static char * hud_number_8_xpm[] = {
"15 24 2 1",
" 	c None",
".	c #FFFFFF",
"    ........   ",
"  ...........  ",
"  ............ ",
" .....    .... ",
" ....      ....",
" ....      ....",
" ....      ....",
" .....    .... ",
"  ............ ",
"   ..........  ",
"   .........   ",
"  ............ ",
"  ............ ",
" .....   ..... ",
" ....     .....",
".....      ....",
"....        ...",
"....        ...",
".....      ....",
" ....     .....",
" ..............",
" ............. ",
"   ..........  ",
"     .....     "};
