/* XPM */
static char * hud_flash_full_xpm[] = {
"43 24 195 2",
"  	c None",
". 	c #1E1E1E",
"+ 	c #383838",
"@ 	c #545454",
"# 	c #5F5F5F",
"$ 	c #646464",
"% 	c #626262",
"& 	c #555555",
"* 	c #4B4B4B",
"= 	c #464646",
"- 	c #1F1F1F",
"; 	c #292929",
"> 	c #666666",
", 	c #A6A6A6",
"' 	c #C0C0C0",
") 	c #CACACA",
"! 	c #B2B2B2",
"~ 	c #8C8C8C",
"{ 	c #686868",
"] 	c #2F2F2F",
"^ 	c #353535",
"/ 	c #3C3C3C",
"( 	c #444444",
"_ 	c #474747",
": 	c #4A4A4A",
"< 	c #4E4E4E",
"[ 	c #4C4C4C",
"} 	c #454545",
"| 	c #3B3B3B",
"1 	c #212121",
"2 	c #3F3F3F",
"3 	c #5B5B5B",
"4 	c #AAAAAA",
"5 	c #D7D7D7",
"6 	c #EBEBEB",
"7 	c #F2F2F2",
"8 	c #E0E0E0",
"9 	c #AEAEAE",
"0 	c #7D7D7D",
"a 	c #515151",
"b 	c #606060",
"c 	c #6D6D6D",
"d 	c #727272",
"e 	c #757575",
"f 	c #7B7B7B",
"g 	c #767676",
"h 	c #696969",
"i 	c #575757",
"j 	c #232323",
"k 	c #191919",
"l 	c #2E2E2E",
"m 	c #8A8A8A",
"n 	c #EAEAEA",
"o 	c #F9F9F9",
"p 	c #FFFFFF",
"q 	c #FDFDFD",
"r 	c #C5C5C5",
"s 	c #8D8D8D",
"t 	c #595959",
"u 	c #161616",
"v 	c #1B1B1B",
"w 	c #202020",
"x 	c #242424",
"y 	c #262626",
"z 	c #272727",
"A 	c #282828",
"B 	c #2B2B2B",
"C 	c #2C2C2C",
"D 	c #565656",
"E 	c #818181",
"F 	c #CBCBCB",
"G 	c #E2E2E2",
"H 	c #E5E5E5",
"I 	c #E4E4E4",
"J 	c #D8D8D8",
"K 	c #B1B1B1",
"L 	c #363636",
"M 	c #5C5C5C",
"N 	c #A2A2A2",
"O 	c #FEFEFE",
"P 	c #E9E9E9",
"Q 	c #D6D6D6",
"R 	c #D1D1D1",
"S 	c #F5F5F5",
"T 	c #C2C2C2",
"U 	c #8F8F8F",
"V 	c #1C1C1C",
"W 	c #484848",
"X 	c #838383",
"Y 	c #868686",
"Z 	c #878787",
"` 	c #888888",
" .	c #8B8B8B",
"..	c #9A9A9A",
"+.	c #F3F3F3",
"@.	c #F4F4F4",
"#.	c #F7F7F7",
"$.	c #EDEDED",
"%.	c #D2D2D2",
"&.	c #979797",
"*.	c #858585",
"=.	c #D0D0D0",
"-.	c #E3E3E3",
";.	c #DBDBDB",
">.	c #898989",
",.	c #BFBFBF",
"'.	c #959595",
").	c #222222",
"!.	c #323232",
"~.	c #A7A7A7",
"{.	c #B3B3B3",
"].	c #B4B4B4",
"^.	c #BDBDBD",
"/.	c #EFEFEF",
"(.	c #F0F0F0",
"_.	c #F1F1F1",
":.	c #ECECEC",
"<.	c #DEDEDE",
"[.	c #CCCCCC",
"}.	c #B6B6B6",
"|.	c #B5B5B5",
"1.	c #BCBCBC",
"2.	c #A4A4A4",
"3.	c #414141",
"4.	c #A9A9A9",
"5.	c #B9B9B9",
"6.	c #CECECE",
"7.	c #CFCFCF",
"8.	c #D4D4D4",
"9.	c #D5D5D5",
"0.	c #343434",
"a.	c #6B6B6B",
"b.	c #1A1A1A",
"c.	c #9B9B9B",
"d.	c #656565",
"e.	c #434343",
"f.	c #909090",
"g.	c #E1E1E1",
"h.	c #3A3A3A",
"i.	c #252525",
"j.	c #141414",
"k.	c #E6E6E6",
"l.	c #F8F8F8",
"m.	c #B8B8B8",
"n.	c #616161",
"o.	c #585858",
"p.	c #BBBBBB",
"q.	c #6C6C6C",
"r.	c #939393",
"s.	c #969696",
"t.	c #373737",
"u.	c #2A2A2A",
"v.	c #636363",
"w.	c #D3D3D3",
"x.	c #DDDDDD",
"y.	c #FBFBFB",
"z.	c #999999",
"A.	c #9D9D9D",
"B.	c #C3C3C3",
"C.	c #808080",
"D.	c #6A6A6A",
"E.	c #BABABA",
"F.	c #FCFCFC",
"G.	c #9C9C9C",
"H.	c #9E9E9E",
"I.	c #676767",
"J.	c #7A7A7A",
"K.	c #404040",
"L.	c #919191",
"M.	c #DCDCDC",
"N.	c #494949",
"O.	c #2D2D2D",
"P.	c #CDCDCD",
"Q.	c #C9C9C9",
"R.	c #333333",
"S.	c #797979",
"T.	c #A1A1A1",
"U.	c #B7B7B7",
"V.	c #BEBEBE",
"W.	c #C7C7C7",
"X.	c #4F4F4F",
"Y.	c #989898",
"Z.	c #8E8E8E",
"`.	c #DFDFDF",
" +	c #828282",
".+	c #101010",
"++	c #1D1D1D",
"@+	c #303030",
"#+	c #313131",
"$+	c #5D5D5D",
"%+	c #E7E7E7",
"&+	c #ACACAC",
"*+	c #A3A3A3",
"=+	c #535353",
"-+	c #3E3E3E",
"                                                                    . + @ # $ % & * = ",
"                                                                  - ; > , ' ) ! ~ { * ",
"                                  ] ^ / ( _ : < [ } |           1 2 3 4 5 6 7 8 9 0 a ",
"                                - / a b c d e f g h i ] j     k l b m n o p p q r s t ",
"        u v w x y z z A B B C l / D E F G H I 6 J K f _ L ; A M N 5 O P Q R Q S T U b ",
"      V W { f X Y Y Z ` ` ` `  . ...! 8 +.@.+.#.$.%.! &. .*. .=.-.I ;...` X >.I ,.'.$ ",
"    ).!.f '.~.9 K ! ! {.{.{.{.].].^.) -./.(./._.:.<.[.^.}.|.1.$.n =.2.3.< } A J ^...> ",
"  w !.W 4.5.r ) 6.6.6.7.6.6.6.6.7.R %.8.Q 5 5 5 5 5 9.R %.J <.8 ' ~ V 0.g a.b.%.1.c.d.",
").e.h f.g.F 2.h.i.j j j j j j j j j ).w - - - - - w 1 ).).).1 i.j.x : k.l.7.| R m.'.n.",
"z o.m p.9.~.q.w  .r.s.'.'.'.'.'.'.'.'.'.'.'.'.'.'.'.'.'.'.'.'.'.&.~.^.#.q 7.t.=.5.&.b ",
"u.v...7.F m [ d ) =.%.R R R R R R R R R R R R R R R R R R R R R w.x.P y.O 7.L =.p.z.n.",
"B d.A.w.B.C.D.E.q p p p p p p p p p p p p p p p p p p p p p p p p q y.+.F.7.L R ^.G.$ ",
"B > H.8.B.C.D.E.q p p p p p p p p p p p p p p p p p p p p p p p p q y.+.F.7.L =.1.A.I.",
"A v.c.R [.>.: d ) =.%.R R R R R R R R R R R R R R R R R R R R R w.x.P y.O 7.L R ^.A.I.",
"j o.~ ^.Q 9 J.x  .r.s.'.'.'.'.'.'.'.'.'.'.'.'.'.'.'.'.'.'.'.'.'.&.~.^.#.q 7.t.%.^.A.I.",
"v K.h L.g.M.^.K.x ).).j j j j j j j j j j j j j j j j j ).).1 y j.j N.k.l.7.| %.^.G.> ",
"  k O.= , 5 P J P.6.P.F Q.Q.Q.Q.) ) ) ) ) ) ) ) ) ) ) ) 6.R 8.M.B.r.A R.g a.b.7.^.H.> ",
"    z ] S.T.U.p.V.V.1.U.|.].].|.|.|.|.|.|.}.}.}.}.}.U.5.V.W.=.5 k.Q {.( X.} A Q p.Y.d.",
"      v = $ f Z.&.&.'.f.Z.s ~ s s s s s s Z.Z.Z.U U f.r.Y.2.K }.5 `.;...Z  +Y G 1.r.v.",
"        .+u ++y @+@+] B u.; A A A z y z A ; ; u.C ] @+#+R.( @ $+*.5.-.%+9.7.%._.' U b ",
"                                                              v l < c T (.p p #.T ~ i ",
"                                                                ).0.N.Z ,.5 G <.&+f X.",
"                                                                  . ; _ Z *+{.{. .d.= ",
"                                                                      ).( =+3 % =+_ -+"};
