/* XPM */
static char * hud_crosshair2_xpm[] = {
"10 10 2 1",
" 	c None",
".	c #FFFFFF",
"  ......  ",
"  ......  ",
"..      ..",
"..      ..",
"..      ..",
"..      ..",
"..      ..",
"..      ..",
"  ......  ",
"  ......  "};
