/* XPM */
static char * hud_number_3_xpm[] = {
"14 24 2 1",
" 	c None",
".	c #FFFFFF",
"  ........    ",
"...........   ",
"............  ",
" ...    ..... ",
"         .... ",
"         .... ",
"         .... ",
"         .... ",
"        ..... ",
"     .......  ",
"     ......   ",
"     .......  ",
"     .......  ",
"        ..... ",
"         .... ",
"          ....",
"          ....",
"          ....",
"          ....",
" ..      .....",
"............. ",
"............. ",
" ..........   ",
"   .....      "};
