/* XPM */
static char * hud_crosshair_xpm[] = {
"24 24 7 1",
" 	c None",
".	c #4D4D4D",
"+	c #000000",
"@	c #FFFFFF",
"#	c #FF0900",
"$	c #563300",
"%	c #FFFFFF",
"           @@           ",
"           @@           ",
"           @@           ",
"           @@           ",
"                        ",
"                        ",
"                        ",
"                        ",
"                        ",
"                        ",
"                        ",
"@@@@                @@@@",
"@@@@                @@@@",
"                        ",
"                        ",
"                        ",
"                        ",
"                        ",
"                        ",
"                        ",
"           @@           ",
"           @@           ",
"           @@           ",
"           @@           "};
