/* XPM */
static char * hud_number_5_xpm[] = {
"14 24 2 1",
" 	c None",
".	c #FFFFFF",
"............. ",
"............. ",
"............. ",
"....          ",
"....          ",
"....          ",
"....          ",
"..........    ",
"............  ",
"............. ",
"..... ....... ",
"...      .... ",
"...      .... ",
"         .....",
"          ....",
"          ....",
"          ....",
"          ....",
"         .... ",
" ..      .... ",
"............. ",
"............  ",
" ..........   ",
"   .....      "};
