/* XPM */
static char * hud_cross_xpm[] = {
"24 24 2 1",
" 	c None",
".	c #FFFFFF",
"     ..............     ",
"     ..............     ",
"     ..............     ",
"     ..............     ",
"     ..............     ",
"........................",
"........................",
"........................",
"........................",
"........................",
"........................",
"........................",
"........................",
"........................",
"........................",
"........................",
"........................",
"........................",
"........................",
"     ..............     ",
"     ..............     ",
"     ..............     ",
"     ..............     ",
"     ..............     "};
