/* XPM */
static char * hud_number_4_xpm[] = {
"16 24 2 1",
" 	c None",
".	c #FFFFFF",
"            ..  ",
"           ...  ",
"          ....  ",
"         .....  ",
"       .......  ",
"      ........  ",
"      ........  ",
"      ........  ",
"     .........  ",
"    ..... ....  ",
"   ...... ....  ",
"  .....   ....  ",
"  ....    ....  ",
" ....     ....  ",
"....      ....  ",
"................",
"................",
"................",
"................",
"          ....  ",
"          ....  ",
"          ....  ",
"          ....  ",
"          ....  "};
